PathFileType	4	(X/Y/Z)	D:\Long Term Storage\D'Arcy Smith\Coord7.trc
DataRate	CameraRate	NumFrames	NumMarkers	Units	OrigDataRate	OrigDataStartFrame	OrigNumFrames
120.00	120.00	      85	4	mm	120.00	4252	      4859
Frame#	Time	M1			M2			M3			M4			
		X1	Y1	Z1	X2	Y2	Z2	X3	Y3	Z3	X4	Y4	Z4	

4252	35.425	1062.86060	308.19043	595.09161	1529.77649	312.00180	311.05106							
4253	35.433	1062.40784	308.79120	594.59833	1530.08752	311.85358	309.66611							
4254	35.442	1062.24829	308.98978	593.31073	1530.66565	311.14557	309.61728							
4255	35.450	1062.22620	309.10757	591.39172	1531.47253	309.93390	310.55194							
4256	35.458	1062.45715	309.00827	588.63934	1532.40369	308.13510	313.17136							
4257	35.467	1062.67639	308.69778	585.15399	1534.14319	305.53384	316.51108							
4258	35.475	1063.20801	308.26410	581.17877	1534.67126	303.41312	321.31555							
4259	35.483	1063.93945	307.53851	576.47058	1536.81226	300.43875	327.87726							
4260	35.492	1064.79761	306.85458	570.94128	1538.65259	297.18301	335.02722							
4261	35.500	1065.69104	306.01135	565.18921	1540.46826	293.93439	342.80402							
4262	35.508	1066.69324	305.28259	558.72601	1542.43909	290.45499	352.26929							
4263	35.517	1067.39331	304.53674	552.11023	1544.77271	287.22260	362.55441							
4264	35.525	1069.30957	303.92685	544.51489	1547.15271	284.35870	372.26108							
4265	35.533	1070.98022	303.25491	536.78186	1549.36853	281.25925	385.28574							
4266	35.542	1072.61926	302.80420	528.38708	1551.46375	278.66776	397.92142							
4267	35.550	1074.50818	302.36127	519.48645	1553.73291	276.36954	411.29916							
4268	35.558	1076.68628	301.97018	510.54199	1556.00134	274.82062	424.66617							
4269	35.567	1078.35400	302.12970	501.74835	1558.51270	273.31985	439.93881							
4270	35.575	1080.50525	302.01544	491.49161	1560.72339	272.18634	454.57019							
4271	35.583	1082.41980	302.65042	482.28143	1563.15308	272.38028	468.40067							
4272	35.592	1084.54932	302.71814	471.74698	1565.41370	272.20935	484.62332							
4273	35.600	1086.59583	303.65179	461.21915	1567.90149	273.32642	499.28333							
4274	35.608	1088.43982	304.42004	451.23636	1570.03833	274.49841	514.30835							
4275	35.617	1090.75647	305.51935	440.26895	1572.71167	276.03647	529.40662							
4276	35.625	1091.94458	307.27740	430.98419	1574.79236	278.51428	545.10730							
4277	35.633	1094.47607	308.51440	419.61191	1576.67627	281.52219	558.95624							
4278	35.642	1096.31592	310.54874	409.44830	1578.44446	283.84003	573.71460							
4279	35.650	1098.10181	312.25430	399.72125	1579.77698	287.68079	586.88672							
4280	35.658	1101.10266	314.54318	388.64090	1581.17529	291.17395	599.65631							
4281	35.667	1102.21216	316.25259	378.58453	1582.41650	295.59247	612.28967							
4282	35.675	1103.49353	318.59122	368.76550	1583.41150	299.92712	623.94220							
4283	35.683	1104.81738	321.23550	359.72696	1584.54565	305.15900	634.32275							
4284	35.692	1105.76563	324.03357	351.30646	1589.33337	307.62277	641.29987							
4285	35.700	1107.74939	327.11325	341.93698	1594.53955	311.20462	647.24573							
4286	35.708	1107.25745	329.82770	334.89624	1600.14905	315.70187	654.95160							
4287	35.717	1107.96667	332.75797	327.74673	1604.97253	319.33810	659.83118							
4288	35.725	1109.51892	335.64529	319.05878	1609.45544	322.89261	664.02252							
4289	35.733	1109.53064	338.19376	313.22836	1613.80457	326.53894	667.84491							
4290	35.742	1109.84448	340.82019	307.62561	1618.12256	330.30405	671.14746							
4291	35.750	1109.47595	342.97263	302.20120	1621.97095	333.73172	674.15515							
4292	35.758	1109.03503	344.95090	297.76486	1625.25537	337.45642	676.22516							
4293	35.767	1108.83496	346.88657	293.86877	1629.89258	339.67996	678.89209							
4294	35.775	1108.81262	348.46692	290.95361	1632.76489	342.44876	680.48639							
4295	35.783	1107.58179	348.83813	289.50497	1635.48438	344.40326	681.03387							
4296	35.792	1106.45581	349.02539	288.24548	1638.32166	345.99240	681.99915							
4297	35.800	1103.85596	348.82889	289.20566	1640.47546	347.38397	681.66193							
4298	35.808	1102.71570	348.33759	289.42914	1642.76672	348.49402	681.15454							
4299	35.817	1103.37244	347.67865	288.14801	1644.17493	349.21344	679.60010							
4300	35.825	1101.36572	346.04813	291.29495	1645.66833	349.74911	678.14636							
4301	35.833	1099.07959	344.14984	294.40625	1646.83948	349.74872	676.04791							
4302	35.842	1097.59387	341.82770	297.68076	1647.74719	349.56577	673.60742							
4303	35.850	1097.84570	339.53793	299.67874	1648.29834	348.75388	670.18817							
4304	35.858	1095.15906	336.18173	304.75037	1648.69421	347.63275	666.50128							
4305	35.867	1093.77734	332.93552	309.52637	1649.20898	346.27094	663.21692							
4306	35.875	1092.68835	329.51001	314.94107	1648.77954	344.59082	658.19965							
4307	35.883	1092.02881	325.79700	319.07343	1648.47534	342.54156	652.83807							
4308	35.892	1090.62292	322.15552	326.73383	1647.88586	340.29803	647.35254							
4309	35.900	1090.17664	318.11728	331.53210	1646.99048	337.92114	641.23138							
4310	35.908	1088.55823	314.62369	340.12476	1645.88464	335.22192	634.81219							
4311	35.917	1087.90173	310.77557	347.48413	1644.80347	332.30200	627.59998							
4312	35.925	1087.11975	306.79587	354.76675	1643.27930	329.45737	619.87189							
4313	35.933	1086.16199	302.88803	362.62894	1641.21582	326.38364	611.80072							
4314	35.942	1085.31628	299.12344	371.00641	1639.67737	323.20715	603.36224							
4315	35.950	1084.61780	295.12146	380.13779	1637.58105	319.93658	593.95892							
4316	35.958	1084.49268	291.80347	388.38449	1635.20447	316.80411	584.71320							
4317	35.967	1083.56946	288.46722	397.79770	1632.75391	313.69995	574.64264							
4318	35.975	1082.88330	285.06500	407.55005	1630.16675	310.51895	563.94916							
4319	35.983	1081.93042	282.31805	417.89044	1626.93750	307.36765	552.21655							
4320	35.992	1081.04663	280.05875	428.40341	1623.89209	304.62930	541.15143							
4321	36.000	1080.42969	277.97269	439.45242	1620.72888	302.17743	529.72699							
4322	36.008	1079.45337	276.19012	450.44797	1617.47607	300.04202	517.83337							
4323	36.017	1078.95898	275.11551	461.36438	1614.06665	298.42181	505.73367							
4324	36.025	1078.41614	274.43988	472.34415	1610.60254	297.13788	493.70541							
4325	36.033	1077.50354	274.55615	483.25317	1606.89478	296.05737	481.13535							
4326	36.042	1076.63721	275.15210	494.35748	1603.06702	295.82086	468.23550							
4327	36.050	1075.32825	276.58932	504.66119	1599.24841	295.67691	455.26141							
4328	36.058	1075.20068	277.96671	514.75531	1595.63086	295.68219	442.51459							
4329	36.067	1074.16577	280.22260	524.57733	1592.28796	296.13284	429.40088							
4330	36.075	1072.94739	282.37488	533.80334	1588.68457	296.98694	417.33655							
4331	36.083	1072.13843	284.91397	542.18707	1585.42224	297.96707	405.11404							
4332	36.092	1071.41895	287.46545	549.90155	1582.20325	299.07693	392.96579							
4333	36.100	1070.53113	289.87692	556.86298	1579.39404	300.34244	381.66208							
4334	36.108	1069.79321	292.20609	562.80438	1576.57593	301.85477	370.83398							
4335	36.117	1069.10950	294.21121	568.06299	1574.13574	302.99161	360.55521							
4336	36.125	1068.36084	296.14655	572.65033	1571.96716	304.38760	351.04648							
